%TF.GenerationSoftware,KiCad,Pcbnew,9.0.7*%
%TF.CreationDate,2026-04-13T21:17:57+02:00*%
%TF.ProjectId,PCB_LSH20_3P_pack,5043425f-4c53-4483-9230-5f33505f7061,rev?*%
%TF.SameCoordinates,Original*%
%TF.FileFunction,Profile,NP*%
%FSLAX46Y46*%
G04 Gerber Fmt 4.6, Leading zero omitted, Abs format (unit mm)*
G04 Created by KiCad (PCBNEW 9.0.7) date 2026-04-13 21:17:57*
%MOMM*%
%LPD*%
G01*
G04 APERTURE LIST*
%ADD10C,0.150000*%
%TA.AperFunction,Profile*%
%ADD11C,0.050000*%
%TD*%
G04 APERTURE END LIST*
D10*
X116190476Y-117804819D02*
X116857142Y-117804819D01*
X116857142Y-117804819D02*
X116428571Y-118804819D01*
X117190476Y-117900057D02*
X117238095Y-117852438D01*
X117238095Y-117852438D02*
X117333333Y-117804819D01*
X117333333Y-117804819D02*
X117571428Y-117804819D01*
X117571428Y-117804819D02*
X117666666Y-117852438D01*
X117666666Y-117852438D02*
X117714285Y-117900057D01*
X117714285Y-117900057D02*
X117761904Y-117995295D01*
X117761904Y-117995295D02*
X117761904Y-118090533D01*
X117761904Y-118090533D02*
X117714285Y-118233390D01*
X117714285Y-118233390D02*
X117142857Y-118804819D01*
X117142857Y-118804819D02*
X117761904Y-118804819D01*
D11*
X81000000Y-112000000D02*
X81000000Y-120086420D01*
X153000000Y-120086420D02*
X153000000Y-112000000D01*
X81000000Y-119500000D02*
X153000000Y-119500000D01*
X81000000Y-119500000D02*
X82126504Y-118913579D01*
X81000000Y-119500000D02*
X82126504Y-120086421D01*
X153000000Y-119500000D02*
X151873496Y-120086421D01*
X153000000Y-119500000D02*
X151873496Y-118913579D01*
D10*
X72304819Y-82702380D02*
X72304819Y-83178570D01*
X72304819Y-83178570D02*
X72781009Y-83226189D01*
X72781009Y-83226189D02*
X72733390Y-83178570D01*
X72733390Y-83178570D02*
X72685771Y-83083332D01*
X72685771Y-83083332D02*
X72685771Y-82845237D01*
X72685771Y-82845237D02*
X72733390Y-82749999D01*
X72733390Y-82749999D02*
X72781009Y-82702380D01*
X72781009Y-82702380D02*
X72876247Y-82654761D01*
X72876247Y-82654761D02*
X73114342Y-82654761D01*
X73114342Y-82654761D02*
X73209580Y-82702380D01*
X73209580Y-82702380D02*
X73257200Y-82749999D01*
X73257200Y-82749999D02*
X73304819Y-82845237D01*
X73304819Y-82845237D02*
X73304819Y-83083332D01*
X73304819Y-83083332D02*
X73257200Y-83178570D01*
X73257200Y-83178570D02*
X73209580Y-83226189D01*
X73304819Y-82178570D02*
X73304819Y-81988094D01*
X73304819Y-81988094D02*
X73257200Y-81892856D01*
X73257200Y-81892856D02*
X73209580Y-81845237D01*
X73209580Y-81845237D02*
X73066723Y-81749999D01*
X73066723Y-81749999D02*
X72876247Y-81702380D01*
X72876247Y-81702380D02*
X72495295Y-81702380D01*
X72495295Y-81702380D02*
X72400057Y-81749999D01*
X72400057Y-81749999D02*
X72352438Y-81797618D01*
X72352438Y-81797618D02*
X72304819Y-81892856D01*
X72304819Y-81892856D02*
X72304819Y-82083332D01*
X72304819Y-82083332D02*
X72352438Y-82178570D01*
X72352438Y-82178570D02*
X72400057Y-82226189D01*
X72400057Y-82226189D02*
X72495295Y-82273808D01*
X72495295Y-82273808D02*
X72733390Y-82273808D01*
X72733390Y-82273808D02*
X72828628Y-82226189D01*
X72828628Y-82226189D02*
X72876247Y-82178570D01*
X72876247Y-82178570D02*
X72923866Y-82083332D01*
X72923866Y-82083332D02*
X72923866Y-81892856D01*
X72923866Y-81892856D02*
X72876247Y-81797618D01*
X72876247Y-81797618D02*
X72828628Y-81749999D01*
X72828628Y-81749999D02*
X72733390Y-81702380D01*
X73209580Y-81273808D02*
X73257200Y-81226189D01*
X73257200Y-81226189D02*
X73304819Y-81273808D01*
X73304819Y-81273808D02*
X73257200Y-81321427D01*
X73257200Y-81321427D02*
X73209580Y-81273808D01*
X73209580Y-81273808D02*
X73304819Y-81273808D01*
X72304819Y-80321428D02*
X72304819Y-80797618D01*
X72304819Y-80797618D02*
X72781009Y-80845237D01*
X72781009Y-80845237D02*
X72733390Y-80797618D01*
X72733390Y-80797618D02*
X72685771Y-80702380D01*
X72685771Y-80702380D02*
X72685771Y-80464285D01*
X72685771Y-80464285D02*
X72733390Y-80369047D01*
X72733390Y-80369047D02*
X72781009Y-80321428D01*
X72781009Y-80321428D02*
X72876247Y-80273809D01*
X72876247Y-80273809D02*
X73114342Y-80273809D01*
X73114342Y-80273809D02*
X73209580Y-80321428D01*
X73209580Y-80321428D02*
X73257200Y-80369047D01*
X73257200Y-80369047D02*
X73304819Y-80464285D01*
X73304819Y-80464285D02*
X73304819Y-80702380D01*
X73304819Y-80702380D02*
X73257200Y-80797618D01*
X73257200Y-80797618D02*
X73209580Y-80845237D01*
D11*
X80500000Y-52000000D02*
X73413580Y-52000000D01*
X73413580Y-111500000D02*
X80500000Y-111500000D01*
X74000000Y-52000000D02*
X74000000Y-111500000D01*
X74000000Y-52000000D02*
X74586421Y-53126504D01*
X74000000Y-52000000D02*
X73413579Y-53126504D01*
X74000000Y-111500000D02*
X73413579Y-110373496D01*
X74000000Y-111500000D02*
X74586421Y-110373496D01*
X81000000Y-111500000D02*
X81000000Y-52000000D01*
X153000000Y-111500000D02*
X81000000Y-111500000D01*
X153000000Y-52000000D02*
X153000000Y-111500000D01*
X81000000Y-52000000D02*
X153000000Y-52000000D01*
M02*
