M48
; DRILL file {KiCad 9.0.7} date 2026-04-13T21:19:57+0200
; FORMAT={-:-/ absolute / metric / decimal}
; #@! TF.CreationDate,2026-04-13T21:19:57+02:00
; #@! TF.GenerationSoftware,Kicad,Pcbnew,9.0.7
; #@! TF.FileFunction,Plated,1,2,PTH
FMAT,2
METRIC
; #@! TA.AperFunction,Plated,PTH,ViaDrill
T1C0.300
; #@! TA.AperFunction,Plated,PTH,ComponentDrill
T2C1.000
%
G90
G05
T1
X84.0Y-106.5
X84.5Y-57.0
X86.0Y-70.0
X86.5Y-89.5
X87.0Y-57.0
X87.0Y-106.406
X88.0Y-67.5
X88.0Y-70.0
X88.0Y-72.5
X88.5Y-87.0
X88.5Y-89.5
X88.5Y-91.5
X89.5Y-106.406
X90.0Y-57.0
X90.5Y-70.0
X90.5Y-89.5
X114.5Y-70.5
X114.5Y-106.406
X115.0Y-57.0
X115.5Y-90.0
X116.5Y-68.5
X116.5Y-70.5
X116.5Y-73.0
X117.0Y-57.0
X117.0Y-88.5
X117.0Y-90.0
X117.0Y-91.5
X117.0Y-106.406
X118.5Y-90.0
X119.0Y-57.0
X119.0Y-70.5
X119.0Y-106.406
X141.5Y-70.5
X143.5Y-90.0
X144.0Y-57.0
X144.0Y-68.5
X144.0Y-70.5
X144.0Y-72.5
X144.0Y-106.406
X145.0Y-88.5
X145.0Y-90.0
X145.0Y-91.5
X146.0Y-70.5
X146.5Y-90.0
X147.0Y-57.0
X147.0Y-106.406
X149.0Y-57.0
X150.0Y-106.5
X248.5Y-121.5
X256.5Y-121.5
T2
X99.5Y-80.725
X99.5Y-83.265
X135.0Y-80.725
X135.0Y-83.265
M30
