M48
; DRILL file {KiCad 9.0.1} date 2025-05-01T17:43:11+0200
; FORMAT={-:-/ absolute / metric / decimal}
; #@! TF.CreationDate,2025-05-01T17:43:11+02:00
; #@! TF.GenerationSoftware,Kicad,Pcbnew,9.0.1
; #@! TF.FileFunction,Plated,1,2,PTH
FMAT,2
METRIC
; #@! TA.AperFunction,Plated,PTH,ViaDrill
T1C0.300
; #@! TA.AperFunction,Plated,PTH,ComponentDrill
T2C1.000
%
G90
G05
T1
X118.5Y-63.5
X118.5Y-72.0
X121.0Y-63.5
X121.0Y-65.5
X121.0Y-70.5
X121.0Y-72.0
X128.0Y-99.0
X128.5Y-41.0
X131.0Y-99.0
X132.5Y-40.5
X135.0Y-99.0
X136.5Y-40.5
X138.5Y-99.0
X139.0Y-40.5
X161.0Y-40.5
X161.0Y-99.0
X164.0Y-98.5
X165.0Y-40.5
X166.5Y-54.5
X166.5Y-57.0
X166.5Y-60.0
X166.5Y-76.5
X166.5Y-79.5
X166.5Y-82.5
X167.5Y-98.5
X168.5Y-40.5
X172.0Y-40.5
X172.0Y-98.5
X193.5Y-99.0
X194.0Y-40.5
X197.0Y-40.5
X197.5Y-99.0
X201.0Y-40.5
X201.5Y-99.0
X204.5Y-40.5
X205.0Y-99.0
X211.5Y-71.5
X211.5Y-73.0
X212.0Y-65.0
X212.0Y-66.5
X213.0Y-73.0
X213.5Y-65.0
T2
X118.5Y-66.5
X118.5Y-69.04
X214.5Y-67.725
X214.5Y-70.265
M30
