G04 #@! TF.GenerationSoftware,KiCad,Pcbnew,9.0.1*
G04 #@! TF.CreationDate,2025-05-01T17:42:45+02:00*
G04 #@! TF.ProjectId,lsh_pcb_6p_v1,6c73685f-7063-4625-9f36-705f76312e6b,rev?*
G04 #@! TF.SameCoordinates,Original*
G04 #@! TF.FileFunction,Legend,Bot*
G04 #@! TF.FilePolarity,Positive*
%FSLAX46Y46*%
G04 Gerber Fmt 4.6, Leading zero omitted, Abs format (unit mm)*
G04 Created by KiCad (PCBNEW 9.0.1) date 2025-05-01 17:42:45*
%MOMM*%
%LPD*%
G01*
G04 APERTURE LIST*
%ADD10C,0.100000*%
%ADD11C,1.000000*%
%ADD12C,0.750000*%
G04 APERTURE END LIST*
D10*
X134285714Y-69433609D02*
X134142857Y-69481228D01*
X134142857Y-69481228D02*
X134095238Y-69528847D01*
X134095238Y-69528847D02*
X134047619Y-69624085D01*
X134047619Y-69624085D02*
X134047619Y-69766942D01*
X134047619Y-69766942D02*
X134095238Y-69862180D01*
X134095238Y-69862180D02*
X134142857Y-69909800D01*
X134142857Y-69909800D02*
X134238095Y-69957419D01*
X134238095Y-69957419D02*
X134619047Y-69957419D01*
X134619047Y-69957419D02*
X134619047Y-68957419D01*
X134619047Y-68957419D02*
X134285714Y-68957419D01*
X134285714Y-68957419D02*
X134190476Y-69005038D01*
X134190476Y-69005038D02*
X134142857Y-69052657D01*
X134142857Y-69052657D02*
X134095238Y-69147895D01*
X134095238Y-69147895D02*
X134095238Y-69243133D01*
X134095238Y-69243133D02*
X134142857Y-69338371D01*
X134142857Y-69338371D02*
X134190476Y-69385990D01*
X134190476Y-69385990D02*
X134285714Y-69433609D01*
X134285714Y-69433609D02*
X134619047Y-69433609D01*
X133761904Y-68957419D02*
X133190476Y-68957419D01*
X133476190Y-69957419D02*
X133476190Y-68957419D01*
X132952380Y-68957419D02*
X132333333Y-68957419D01*
X132333333Y-68957419D02*
X132666666Y-69338371D01*
X132666666Y-69338371D02*
X132523809Y-69338371D01*
X132523809Y-69338371D02*
X132428571Y-69385990D01*
X132428571Y-69385990D02*
X132380952Y-69433609D01*
X132380952Y-69433609D02*
X132333333Y-69528847D01*
X132333333Y-69528847D02*
X132333333Y-69766942D01*
X132333333Y-69766942D02*
X132380952Y-69862180D01*
X132380952Y-69862180D02*
X132428571Y-69909800D01*
X132428571Y-69909800D02*
X132523809Y-69957419D01*
X132523809Y-69957419D02*
X132809523Y-69957419D01*
X132809523Y-69957419D02*
X132904761Y-69909800D01*
X132904761Y-69909800D02*
X132952380Y-69862180D01*
D11*
X131651629Y-97431333D02*
X127842106Y-97431333D01*
X130651629Y-43431333D02*
X126842106Y-43431333D01*
X128746867Y-45336095D02*
X128746867Y-41526571D01*
D12*
X143406142Y-91363721D02*
X143406142Y-92792293D01*
X143406142Y-92792293D02*
X146406142Y-92792293D01*
X143549000Y-90506579D02*
X143406142Y-90078008D01*
X143406142Y-90078008D02*
X143406142Y-89363722D01*
X143406142Y-89363722D02*
X143549000Y-89078008D01*
X143549000Y-89078008D02*
X143691857Y-88935150D01*
X143691857Y-88935150D02*
X143977571Y-88792293D01*
X143977571Y-88792293D02*
X144263285Y-88792293D01*
X144263285Y-88792293D02*
X144549000Y-88935150D01*
X144549000Y-88935150D02*
X144691857Y-89078008D01*
X144691857Y-89078008D02*
X144834714Y-89363722D01*
X144834714Y-89363722D02*
X144977571Y-89935150D01*
X144977571Y-89935150D02*
X145120428Y-90220865D01*
X145120428Y-90220865D02*
X145263285Y-90363722D01*
X145263285Y-90363722D02*
X145549000Y-90506579D01*
X145549000Y-90506579D02*
X145834714Y-90506579D01*
X145834714Y-90506579D02*
X146120428Y-90363722D01*
X146120428Y-90363722D02*
X146263285Y-90220865D01*
X146263285Y-90220865D02*
X146406142Y-89935150D01*
X146406142Y-89935150D02*
X146406142Y-89220865D01*
X146406142Y-89220865D02*
X146263285Y-88792293D01*
X143406142Y-87506579D02*
X146406142Y-87506579D01*
X144977571Y-87506579D02*
X144977571Y-85792293D01*
X143406142Y-85792293D02*
X146406142Y-85792293D01*
X146120428Y-84506579D02*
X146263285Y-84363722D01*
X146263285Y-84363722D02*
X146406142Y-84078008D01*
X146406142Y-84078008D02*
X146406142Y-83363722D01*
X146406142Y-83363722D02*
X146263285Y-83078008D01*
X146263285Y-83078008D02*
X146120428Y-82935150D01*
X146120428Y-82935150D02*
X145834714Y-82792293D01*
X145834714Y-82792293D02*
X145549000Y-82792293D01*
X145549000Y-82792293D02*
X145120428Y-82935150D01*
X145120428Y-82935150D02*
X143406142Y-84649436D01*
X143406142Y-84649436D02*
X143406142Y-82792293D01*
X146406142Y-80935150D02*
X146406142Y-80649436D01*
X146406142Y-80649436D02*
X146263285Y-80363722D01*
X146263285Y-80363722D02*
X146120428Y-80220865D01*
X146120428Y-80220865D02*
X145834714Y-80078007D01*
X145834714Y-80078007D02*
X145263285Y-79935150D01*
X145263285Y-79935150D02*
X144549000Y-79935150D01*
X144549000Y-79935150D02*
X143977571Y-80078007D01*
X143977571Y-80078007D02*
X143691857Y-80220865D01*
X143691857Y-80220865D02*
X143549000Y-80363722D01*
X143549000Y-80363722D02*
X143406142Y-80649436D01*
X143406142Y-80649436D02*
X143406142Y-80935150D01*
X143406142Y-80935150D02*
X143549000Y-81220865D01*
X143549000Y-81220865D02*
X143691857Y-81363722D01*
X143691857Y-81363722D02*
X143977571Y-81506579D01*
X143977571Y-81506579D02*
X144549000Y-81649436D01*
X144549000Y-81649436D02*
X145263285Y-81649436D01*
X145263285Y-81649436D02*
X145834714Y-81506579D01*
X145834714Y-81506579D02*
X146120428Y-81363722D01*
X146120428Y-81363722D02*
X146263285Y-81220865D01*
X146263285Y-81220865D02*
X146406142Y-80935150D01*
X143406142Y-76363722D02*
X146406142Y-76363722D01*
X146406142Y-76363722D02*
X146406142Y-75649436D01*
X146406142Y-75649436D02*
X146263285Y-75220865D01*
X146263285Y-75220865D02*
X145977571Y-74935150D01*
X145977571Y-74935150D02*
X145691857Y-74792293D01*
X145691857Y-74792293D02*
X145120428Y-74649436D01*
X145120428Y-74649436D02*
X144691857Y-74649436D01*
X144691857Y-74649436D02*
X144120428Y-74792293D01*
X144120428Y-74792293D02*
X143834714Y-74935150D01*
X143834714Y-74935150D02*
X143549000Y-75220865D01*
X143549000Y-75220865D02*
X143406142Y-75649436D01*
X143406142Y-75649436D02*
X143406142Y-76363722D01*
X144549000Y-73363722D02*
X144549000Y-71078008D01*
X143549000Y-68363722D02*
X143406142Y-68649436D01*
X143406142Y-68649436D02*
X143406142Y-69220864D01*
X143406142Y-69220864D02*
X143549000Y-69506579D01*
X143549000Y-69506579D02*
X143691857Y-69649436D01*
X143691857Y-69649436D02*
X143977571Y-69792293D01*
X143977571Y-69792293D02*
X144834714Y-69792293D01*
X144834714Y-69792293D02*
X145120428Y-69649436D01*
X145120428Y-69649436D02*
X145263285Y-69506579D01*
X145263285Y-69506579D02*
X145406142Y-69220864D01*
X145406142Y-69220864D02*
X145406142Y-68649436D01*
X145406142Y-68649436D02*
X145263285Y-68363722D01*
X143549000Y-65935150D02*
X143406142Y-66220864D01*
X143406142Y-66220864D02*
X143406142Y-66792293D01*
X143406142Y-66792293D02*
X143549000Y-67078007D01*
X143549000Y-67078007D02*
X143834714Y-67220864D01*
X143834714Y-67220864D02*
X144977571Y-67220864D01*
X144977571Y-67220864D02*
X145263285Y-67078007D01*
X145263285Y-67078007D02*
X145406142Y-66792293D01*
X145406142Y-66792293D02*
X145406142Y-66220864D01*
X145406142Y-66220864D02*
X145263285Y-65935150D01*
X145263285Y-65935150D02*
X144977571Y-65792293D01*
X144977571Y-65792293D02*
X144691857Y-65792293D01*
X144691857Y-65792293D02*
X144406142Y-67220864D01*
X143406142Y-64078006D02*
X143549000Y-64363721D01*
X143549000Y-64363721D02*
X143834714Y-64506578D01*
X143834714Y-64506578D02*
X146406142Y-64506578D01*
X143406142Y-62506577D02*
X143549000Y-62792292D01*
X143549000Y-62792292D02*
X143834714Y-62935149D01*
X143834714Y-62935149D02*
X146406142Y-62935149D01*
X146406142Y-59078006D02*
X143977571Y-59078006D01*
X143977571Y-59078006D02*
X143691857Y-58935149D01*
X143691857Y-58935149D02*
X143549000Y-58792292D01*
X143549000Y-58792292D02*
X143406142Y-58506577D01*
X143406142Y-58506577D02*
X143406142Y-57935149D01*
X143406142Y-57935149D02*
X143549000Y-57649434D01*
X143549000Y-57649434D02*
X143691857Y-57506577D01*
X143691857Y-57506577D02*
X143977571Y-57363720D01*
X143977571Y-57363720D02*
X146406142Y-57363720D01*
X144549000Y-55935149D02*
X144549000Y-53649435D01*
X145406142Y-52649434D02*
X145406142Y-51506577D01*
X146406142Y-52220863D02*
X143834714Y-52220863D01*
X143834714Y-52220863D02*
X143549000Y-52078006D01*
X143549000Y-52078006D02*
X143406142Y-51792291D01*
X143406142Y-51792291D02*
X143406142Y-51506577D01*
X143406142Y-49220863D02*
X144977571Y-49220863D01*
X144977571Y-49220863D02*
X145263285Y-49363720D01*
X145263285Y-49363720D02*
X145406142Y-49649434D01*
X145406142Y-49649434D02*
X145406142Y-50220863D01*
X145406142Y-50220863D02*
X145263285Y-50506577D01*
X143549000Y-49220863D02*
X143406142Y-49506577D01*
X143406142Y-49506577D02*
X143406142Y-50220863D01*
X143406142Y-50220863D02*
X143549000Y-50506577D01*
X143549000Y-50506577D02*
X143834714Y-50649434D01*
X143834714Y-50649434D02*
X144120428Y-50649434D01*
X144120428Y-50649434D02*
X144406142Y-50506577D01*
X144406142Y-50506577D02*
X144549000Y-50220863D01*
X144549000Y-50220863D02*
X144549000Y-49506577D01*
X144549000Y-49506577D02*
X144691857Y-49220863D01*
X145406142Y-46506577D02*
X142977571Y-46506577D01*
X142977571Y-46506577D02*
X142691857Y-46649434D01*
X142691857Y-46649434D02*
X142549000Y-46792291D01*
X142549000Y-46792291D02*
X142406142Y-47078005D01*
X142406142Y-47078005D02*
X142406142Y-47506577D01*
X142406142Y-47506577D02*
X142549000Y-47792291D01*
X143549000Y-46506577D02*
X143406142Y-46792291D01*
X143406142Y-46792291D02*
X143406142Y-47363719D01*
X143406142Y-47363719D02*
X143549000Y-47649434D01*
X143549000Y-47649434D02*
X143691857Y-47792291D01*
X143691857Y-47792291D02*
X143977571Y-47935148D01*
X143977571Y-47935148D02*
X144834714Y-47935148D01*
X144834714Y-47935148D02*
X145120428Y-47792291D01*
X145120428Y-47792291D02*
X145263285Y-47649434D01*
X145263285Y-47649434D02*
X145406142Y-47363719D01*
X145406142Y-47363719D02*
X145406142Y-46792291D01*
X145406142Y-46792291D02*
X145263285Y-46506577D01*
X143549000Y-45220862D02*
X143406142Y-44935148D01*
X143406142Y-44935148D02*
X143406142Y-44363719D01*
X143406142Y-44363719D02*
X143549000Y-44078005D01*
X143549000Y-44078005D02*
X143834714Y-43935148D01*
X143834714Y-43935148D02*
X143977571Y-43935148D01*
X143977571Y-43935148D02*
X144263285Y-44078005D01*
X144263285Y-44078005D02*
X144406142Y-44363719D01*
X144406142Y-44363719D02*
X144406142Y-44792291D01*
X144406142Y-44792291D02*
X144549000Y-45078005D01*
X144549000Y-45078005D02*
X144834714Y-45220862D01*
X144834714Y-45220862D02*
X144977571Y-45220862D01*
X144977571Y-45220862D02*
X145263285Y-45078005D01*
X145263285Y-45078005D02*
X145406142Y-44792291D01*
X145406142Y-44792291D02*
X145406142Y-44363719D01*
X145406142Y-44363719D02*
X145263285Y-44078005D01*
D10*
X167285714Y-69433609D02*
X167142857Y-69481228D01*
X167142857Y-69481228D02*
X167095238Y-69528847D01*
X167095238Y-69528847D02*
X167047619Y-69624085D01*
X167047619Y-69624085D02*
X167047619Y-69766942D01*
X167047619Y-69766942D02*
X167095238Y-69862180D01*
X167095238Y-69862180D02*
X167142857Y-69909800D01*
X167142857Y-69909800D02*
X167238095Y-69957419D01*
X167238095Y-69957419D02*
X167619047Y-69957419D01*
X167619047Y-69957419D02*
X167619047Y-68957419D01*
X167619047Y-68957419D02*
X167285714Y-68957419D01*
X167285714Y-68957419D02*
X167190476Y-69005038D01*
X167190476Y-69005038D02*
X167142857Y-69052657D01*
X167142857Y-69052657D02*
X167095238Y-69147895D01*
X167095238Y-69147895D02*
X167095238Y-69243133D01*
X167095238Y-69243133D02*
X167142857Y-69338371D01*
X167142857Y-69338371D02*
X167190476Y-69385990D01*
X167190476Y-69385990D02*
X167285714Y-69433609D01*
X167285714Y-69433609D02*
X167619047Y-69433609D01*
X166761904Y-68957419D02*
X166190476Y-68957419D01*
X166476190Y-69957419D02*
X166476190Y-68957419D01*
X165904761Y-69052657D02*
X165857142Y-69005038D01*
X165857142Y-69005038D02*
X165761904Y-68957419D01*
X165761904Y-68957419D02*
X165523809Y-68957419D01*
X165523809Y-68957419D02*
X165428571Y-69005038D01*
X165428571Y-69005038D02*
X165380952Y-69052657D01*
X165380952Y-69052657D02*
X165333333Y-69147895D01*
X165333333Y-69147895D02*
X165333333Y-69243133D01*
X165333333Y-69243133D02*
X165380952Y-69385990D01*
X165380952Y-69385990D02*
X165952380Y-69957419D01*
X165952380Y-69957419D02*
X165333333Y-69957419D01*
D11*
X164651629Y-97431333D02*
X160842106Y-97431333D01*
X163651629Y-43431333D02*
X159842106Y-43431333D01*
X161746867Y-45336095D02*
X161746867Y-41526571D01*
D12*
X176406142Y-91363721D02*
X176406142Y-92792293D01*
X176406142Y-92792293D02*
X179406142Y-92792293D01*
X176549000Y-90506579D02*
X176406142Y-90078008D01*
X176406142Y-90078008D02*
X176406142Y-89363722D01*
X176406142Y-89363722D02*
X176549000Y-89078008D01*
X176549000Y-89078008D02*
X176691857Y-88935150D01*
X176691857Y-88935150D02*
X176977571Y-88792293D01*
X176977571Y-88792293D02*
X177263285Y-88792293D01*
X177263285Y-88792293D02*
X177549000Y-88935150D01*
X177549000Y-88935150D02*
X177691857Y-89078008D01*
X177691857Y-89078008D02*
X177834714Y-89363722D01*
X177834714Y-89363722D02*
X177977571Y-89935150D01*
X177977571Y-89935150D02*
X178120428Y-90220865D01*
X178120428Y-90220865D02*
X178263285Y-90363722D01*
X178263285Y-90363722D02*
X178549000Y-90506579D01*
X178549000Y-90506579D02*
X178834714Y-90506579D01*
X178834714Y-90506579D02*
X179120428Y-90363722D01*
X179120428Y-90363722D02*
X179263285Y-90220865D01*
X179263285Y-90220865D02*
X179406142Y-89935150D01*
X179406142Y-89935150D02*
X179406142Y-89220865D01*
X179406142Y-89220865D02*
X179263285Y-88792293D01*
X176406142Y-87506579D02*
X179406142Y-87506579D01*
X177977571Y-87506579D02*
X177977571Y-85792293D01*
X176406142Y-85792293D02*
X179406142Y-85792293D01*
X179120428Y-84506579D02*
X179263285Y-84363722D01*
X179263285Y-84363722D02*
X179406142Y-84078008D01*
X179406142Y-84078008D02*
X179406142Y-83363722D01*
X179406142Y-83363722D02*
X179263285Y-83078008D01*
X179263285Y-83078008D02*
X179120428Y-82935150D01*
X179120428Y-82935150D02*
X178834714Y-82792293D01*
X178834714Y-82792293D02*
X178549000Y-82792293D01*
X178549000Y-82792293D02*
X178120428Y-82935150D01*
X178120428Y-82935150D02*
X176406142Y-84649436D01*
X176406142Y-84649436D02*
X176406142Y-82792293D01*
X179406142Y-80935150D02*
X179406142Y-80649436D01*
X179406142Y-80649436D02*
X179263285Y-80363722D01*
X179263285Y-80363722D02*
X179120428Y-80220865D01*
X179120428Y-80220865D02*
X178834714Y-80078007D01*
X178834714Y-80078007D02*
X178263285Y-79935150D01*
X178263285Y-79935150D02*
X177549000Y-79935150D01*
X177549000Y-79935150D02*
X176977571Y-80078007D01*
X176977571Y-80078007D02*
X176691857Y-80220865D01*
X176691857Y-80220865D02*
X176549000Y-80363722D01*
X176549000Y-80363722D02*
X176406142Y-80649436D01*
X176406142Y-80649436D02*
X176406142Y-80935150D01*
X176406142Y-80935150D02*
X176549000Y-81220865D01*
X176549000Y-81220865D02*
X176691857Y-81363722D01*
X176691857Y-81363722D02*
X176977571Y-81506579D01*
X176977571Y-81506579D02*
X177549000Y-81649436D01*
X177549000Y-81649436D02*
X178263285Y-81649436D01*
X178263285Y-81649436D02*
X178834714Y-81506579D01*
X178834714Y-81506579D02*
X179120428Y-81363722D01*
X179120428Y-81363722D02*
X179263285Y-81220865D01*
X179263285Y-81220865D02*
X179406142Y-80935150D01*
X176406142Y-76363722D02*
X179406142Y-76363722D01*
X179406142Y-76363722D02*
X179406142Y-75649436D01*
X179406142Y-75649436D02*
X179263285Y-75220865D01*
X179263285Y-75220865D02*
X178977571Y-74935150D01*
X178977571Y-74935150D02*
X178691857Y-74792293D01*
X178691857Y-74792293D02*
X178120428Y-74649436D01*
X178120428Y-74649436D02*
X177691857Y-74649436D01*
X177691857Y-74649436D02*
X177120428Y-74792293D01*
X177120428Y-74792293D02*
X176834714Y-74935150D01*
X176834714Y-74935150D02*
X176549000Y-75220865D01*
X176549000Y-75220865D02*
X176406142Y-75649436D01*
X176406142Y-75649436D02*
X176406142Y-76363722D01*
X177549000Y-73363722D02*
X177549000Y-71078008D01*
X176549000Y-68363722D02*
X176406142Y-68649436D01*
X176406142Y-68649436D02*
X176406142Y-69220864D01*
X176406142Y-69220864D02*
X176549000Y-69506579D01*
X176549000Y-69506579D02*
X176691857Y-69649436D01*
X176691857Y-69649436D02*
X176977571Y-69792293D01*
X176977571Y-69792293D02*
X177834714Y-69792293D01*
X177834714Y-69792293D02*
X178120428Y-69649436D01*
X178120428Y-69649436D02*
X178263285Y-69506579D01*
X178263285Y-69506579D02*
X178406142Y-69220864D01*
X178406142Y-69220864D02*
X178406142Y-68649436D01*
X178406142Y-68649436D02*
X178263285Y-68363722D01*
X176549000Y-65935150D02*
X176406142Y-66220864D01*
X176406142Y-66220864D02*
X176406142Y-66792293D01*
X176406142Y-66792293D02*
X176549000Y-67078007D01*
X176549000Y-67078007D02*
X176834714Y-67220864D01*
X176834714Y-67220864D02*
X177977571Y-67220864D01*
X177977571Y-67220864D02*
X178263285Y-67078007D01*
X178263285Y-67078007D02*
X178406142Y-66792293D01*
X178406142Y-66792293D02*
X178406142Y-66220864D01*
X178406142Y-66220864D02*
X178263285Y-65935150D01*
X178263285Y-65935150D02*
X177977571Y-65792293D01*
X177977571Y-65792293D02*
X177691857Y-65792293D01*
X177691857Y-65792293D02*
X177406142Y-67220864D01*
X176406142Y-64078006D02*
X176549000Y-64363721D01*
X176549000Y-64363721D02*
X176834714Y-64506578D01*
X176834714Y-64506578D02*
X179406142Y-64506578D01*
X176406142Y-62506577D02*
X176549000Y-62792292D01*
X176549000Y-62792292D02*
X176834714Y-62935149D01*
X176834714Y-62935149D02*
X179406142Y-62935149D01*
X179406142Y-59078006D02*
X176977571Y-59078006D01*
X176977571Y-59078006D02*
X176691857Y-58935149D01*
X176691857Y-58935149D02*
X176549000Y-58792292D01*
X176549000Y-58792292D02*
X176406142Y-58506577D01*
X176406142Y-58506577D02*
X176406142Y-57935149D01*
X176406142Y-57935149D02*
X176549000Y-57649434D01*
X176549000Y-57649434D02*
X176691857Y-57506577D01*
X176691857Y-57506577D02*
X176977571Y-57363720D01*
X176977571Y-57363720D02*
X179406142Y-57363720D01*
X177549000Y-55935149D02*
X177549000Y-53649435D01*
X178406142Y-52649434D02*
X178406142Y-51506577D01*
X179406142Y-52220863D02*
X176834714Y-52220863D01*
X176834714Y-52220863D02*
X176549000Y-52078006D01*
X176549000Y-52078006D02*
X176406142Y-51792291D01*
X176406142Y-51792291D02*
X176406142Y-51506577D01*
X176406142Y-49220863D02*
X177977571Y-49220863D01*
X177977571Y-49220863D02*
X178263285Y-49363720D01*
X178263285Y-49363720D02*
X178406142Y-49649434D01*
X178406142Y-49649434D02*
X178406142Y-50220863D01*
X178406142Y-50220863D02*
X178263285Y-50506577D01*
X176549000Y-49220863D02*
X176406142Y-49506577D01*
X176406142Y-49506577D02*
X176406142Y-50220863D01*
X176406142Y-50220863D02*
X176549000Y-50506577D01*
X176549000Y-50506577D02*
X176834714Y-50649434D01*
X176834714Y-50649434D02*
X177120428Y-50649434D01*
X177120428Y-50649434D02*
X177406142Y-50506577D01*
X177406142Y-50506577D02*
X177549000Y-50220863D01*
X177549000Y-50220863D02*
X177549000Y-49506577D01*
X177549000Y-49506577D02*
X177691857Y-49220863D01*
X178406142Y-46506577D02*
X175977571Y-46506577D01*
X175977571Y-46506577D02*
X175691857Y-46649434D01*
X175691857Y-46649434D02*
X175549000Y-46792291D01*
X175549000Y-46792291D02*
X175406142Y-47078005D01*
X175406142Y-47078005D02*
X175406142Y-47506577D01*
X175406142Y-47506577D02*
X175549000Y-47792291D01*
X176549000Y-46506577D02*
X176406142Y-46792291D01*
X176406142Y-46792291D02*
X176406142Y-47363719D01*
X176406142Y-47363719D02*
X176549000Y-47649434D01*
X176549000Y-47649434D02*
X176691857Y-47792291D01*
X176691857Y-47792291D02*
X176977571Y-47935148D01*
X176977571Y-47935148D02*
X177834714Y-47935148D01*
X177834714Y-47935148D02*
X178120428Y-47792291D01*
X178120428Y-47792291D02*
X178263285Y-47649434D01*
X178263285Y-47649434D02*
X178406142Y-47363719D01*
X178406142Y-47363719D02*
X178406142Y-46792291D01*
X178406142Y-46792291D02*
X178263285Y-46506577D01*
X176549000Y-45220862D02*
X176406142Y-44935148D01*
X176406142Y-44935148D02*
X176406142Y-44363719D01*
X176406142Y-44363719D02*
X176549000Y-44078005D01*
X176549000Y-44078005D02*
X176834714Y-43935148D01*
X176834714Y-43935148D02*
X176977571Y-43935148D01*
X176977571Y-43935148D02*
X177263285Y-44078005D01*
X177263285Y-44078005D02*
X177406142Y-44363719D01*
X177406142Y-44363719D02*
X177406142Y-44792291D01*
X177406142Y-44792291D02*
X177549000Y-45078005D01*
X177549000Y-45078005D02*
X177834714Y-45220862D01*
X177834714Y-45220862D02*
X177977571Y-45220862D01*
X177977571Y-45220862D02*
X178263285Y-45078005D01*
X178263285Y-45078005D02*
X178406142Y-44792291D01*
X178406142Y-44792291D02*
X178406142Y-44363719D01*
X178406142Y-44363719D02*
X178263285Y-44078005D01*
D10*
X200285714Y-69433609D02*
X200142857Y-69481228D01*
X200142857Y-69481228D02*
X200095238Y-69528847D01*
X200095238Y-69528847D02*
X200047619Y-69624085D01*
X200047619Y-69624085D02*
X200047619Y-69766942D01*
X200047619Y-69766942D02*
X200095238Y-69862180D01*
X200095238Y-69862180D02*
X200142857Y-69909800D01*
X200142857Y-69909800D02*
X200238095Y-69957419D01*
X200238095Y-69957419D02*
X200619047Y-69957419D01*
X200619047Y-69957419D02*
X200619047Y-68957419D01*
X200619047Y-68957419D02*
X200285714Y-68957419D01*
X200285714Y-68957419D02*
X200190476Y-69005038D01*
X200190476Y-69005038D02*
X200142857Y-69052657D01*
X200142857Y-69052657D02*
X200095238Y-69147895D01*
X200095238Y-69147895D02*
X200095238Y-69243133D01*
X200095238Y-69243133D02*
X200142857Y-69338371D01*
X200142857Y-69338371D02*
X200190476Y-69385990D01*
X200190476Y-69385990D02*
X200285714Y-69433609D01*
X200285714Y-69433609D02*
X200619047Y-69433609D01*
X199761904Y-68957419D02*
X199190476Y-68957419D01*
X199476190Y-69957419D02*
X199476190Y-68957419D01*
X198333333Y-69957419D02*
X198904761Y-69957419D01*
X198619047Y-69957419D02*
X198619047Y-68957419D01*
X198619047Y-68957419D02*
X198714285Y-69100276D01*
X198714285Y-69100276D02*
X198809523Y-69195514D01*
X198809523Y-69195514D02*
X198904761Y-69243133D01*
D11*
X197651629Y-97431333D02*
X193842106Y-97431333D01*
X196651629Y-43431333D02*
X192842106Y-43431333D01*
X194746867Y-45336095D02*
X194746867Y-41526571D01*
D12*
X209406142Y-91363721D02*
X209406142Y-92792293D01*
X209406142Y-92792293D02*
X212406142Y-92792293D01*
X209549000Y-90506579D02*
X209406142Y-90078008D01*
X209406142Y-90078008D02*
X209406142Y-89363722D01*
X209406142Y-89363722D02*
X209549000Y-89078008D01*
X209549000Y-89078008D02*
X209691857Y-88935150D01*
X209691857Y-88935150D02*
X209977571Y-88792293D01*
X209977571Y-88792293D02*
X210263285Y-88792293D01*
X210263285Y-88792293D02*
X210549000Y-88935150D01*
X210549000Y-88935150D02*
X210691857Y-89078008D01*
X210691857Y-89078008D02*
X210834714Y-89363722D01*
X210834714Y-89363722D02*
X210977571Y-89935150D01*
X210977571Y-89935150D02*
X211120428Y-90220865D01*
X211120428Y-90220865D02*
X211263285Y-90363722D01*
X211263285Y-90363722D02*
X211549000Y-90506579D01*
X211549000Y-90506579D02*
X211834714Y-90506579D01*
X211834714Y-90506579D02*
X212120428Y-90363722D01*
X212120428Y-90363722D02*
X212263285Y-90220865D01*
X212263285Y-90220865D02*
X212406142Y-89935150D01*
X212406142Y-89935150D02*
X212406142Y-89220865D01*
X212406142Y-89220865D02*
X212263285Y-88792293D01*
X209406142Y-87506579D02*
X212406142Y-87506579D01*
X210977571Y-87506579D02*
X210977571Y-85792293D01*
X209406142Y-85792293D02*
X212406142Y-85792293D01*
X212120428Y-84506579D02*
X212263285Y-84363722D01*
X212263285Y-84363722D02*
X212406142Y-84078008D01*
X212406142Y-84078008D02*
X212406142Y-83363722D01*
X212406142Y-83363722D02*
X212263285Y-83078008D01*
X212263285Y-83078008D02*
X212120428Y-82935150D01*
X212120428Y-82935150D02*
X211834714Y-82792293D01*
X211834714Y-82792293D02*
X211549000Y-82792293D01*
X211549000Y-82792293D02*
X211120428Y-82935150D01*
X211120428Y-82935150D02*
X209406142Y-84649436D01*
X209406142Y-84649436D02*
X209406142Y-82792293D01*
X212406142Y-80935150D02*
X212406142Y-80649436D01*
X212406142Y-80649436D02*
X212263285Y-80363722D01*
X212263285Y-80363722D02*
X212120428Y-80220865D01*
X212120428Y-80220865D02*
X211834714Y-80078007D01*
X211834714Y-80078007D02*
X211263285Y-79935150D01*
X211263285Y-79935150D02*
X210549000Y-79935150D01*
X210549000Y-79935150D02*
X209977571Y-80078007D01*
X209977571Y-80078007D02*
X209691857Y-80220865D01*
X209691857Y-80220865D02*
X209549000Y-80363722D01*
X209549000Y-80363722D02*
X209406142Y-80649436D01*
X209406142Y-80649436D02*
X209406142Y-80935150D01*
X209406142Y-80935150D02*
X209549000Y-81220865D01*
X209549000Y-81220865D02*
X209691857Y-81363722D01*
X209691857Y-81363722D02*
X209977571Y-81506579D01*
X209977571Y-81506579D02*
X210549000Y-81649436D01*
X210549000Y-81649436D02*
X211263285Y-81649436D01*
X211263285Y-81649436D02*
X211834714Y-81506579D01*
X211834714Y-81506579D02*
X212120428Y-81363722D01*
X212120428Y-81363722D02*
X212263285Y-81220865D01*
X212263285Y-81220865D02*
X212406142Y-80935150D01*
X209406142Y-76363722D02*
X212406142Y-76363722D01*
X212406142Y-76363722D02*
X212406142Y-75649436D01*
X212406142Y-75649436D02*
X212263285Y-75220865D01*
X212263285Y-75220865D02*
X211977571Y-74935150D01*
X211977571Y-74935150D02*
X211691857Y-74792293D01*
X211691857Y-74792293D02*
X211120428Y-74649436D01*
X211120428Y-74649436D02*
X210691857Y-74649436D01*
X210691857Y-74649436D02*
X210120428Y-74792293D01*
X210120428Y-74792293D02*
X209834714Y-74935150D01*
X209834714Y-74935150D02*
X209549000Y-75220865D01*
X209549000Y-75220865D02*
X209406142Y-75649436D01*
X209406142Y-75649436D02*
X209406142Y-76363722D01*
X210549000Y-73363722D02*
X210549000Y-71078008D01*
X209549000Y-68363722D02*
X209406142Y-68649436D01*
X209406142Y-68649436D02*
X209406142Y-69220864D01*
X209406142Y-69220864D02*
X209549000Y-69506579D01*
X209549000Y-69506579D02*
X209691857Y-69649436D01*
X209691857Y-69649436D02*
X209977571Y-69792293D01*
X209977571Y-69792293D02*
X210834714Y-69792293D01*
X210834714Y-69792293D02*
X211120428Y-69649436D01*
X211120428Y-69649436D02*
X211263285Y-69506579D01*
X211263285Y-69506579D02*
X211406142Y-69220864D01*
X211406142Y-69220864D02*
X211406142Y-68649436D01*
X211406142Y-68649436D02*
X211263285Y-68363722D01*
X209549000Y-65935150D02*
X209406142Y-66220864D01*
X209406142Y-66220864D02*
X209406142Y-66792293D01*
X209406142Y-66792293D02*
X209549000Y-67078007D01*
X209549000Y-67078007D02*
X209834714Y-67220864D01*
X209834714Y-67220864D02*
X210977571Y-67220864D01*
X210977571Y-67220864D02*
X211263285Y-67078007D01*
X211263285Y-67078007D02*
X211406142Y-66792293D01*
X211406142Y-66792293D02*
X211406142Y-66220864D01*
X211406142Y-66220864D02*
X211263285Y-65935150D01*
X211263285Y-65935150D02*
X210977571Y-65792293D01*
X210977571Y-65792293D02*
X210691857Y-65792293D01*
X210691857Y-65792293D02*
X210406142Y-67220864D01*
X209406142Y-64078006D02*
X209549000Y-64363721D01*
X209549000Y-64363721D02*
X209834714Y-64506578D01*
X209834714Y-64506578D02*
X212406142Y-64506578D01*
X209406142Y-62506577D02*
X209549000Y-62792292D01*
X209549000Y-62792292D02*
X209834714Y-62935149D01*
X209834714Y-62935149D02*
X212406142Y-62935149D01*
X212406142Y-59078006D02*
X209977571Y-59078006D01*
X209977571Y-59078006D02*
X209691857Y-58935149D01*
X209691857Y-58935149D02*
X209549000Y-58792292D01*
X209549000Y-58792292D02*
X209406142Y-58506577D01*
X209406142Y-58506577D02*
X209406142Y-57935149D01*
X209406142Y-57935149D02*
X209549000Y-57649434D01*
X209549000Y-57649434D02*
X209691857Y-57506577D01*
X209691857Y-57506577D02*
X209977571Y-57363720D01*
X209977571Y-57363720D02*
X212406142Y-57363720D01*
X210549000Y-55935149D02*
X210549000Y-53649435D01*
X211406142Y-52649434D02*
X211406142Y-51506577D01*
X212406142Y-52220863D02*
X209834714Y-52220863D01*
X209834714Y-52220863D02*
X209549000Y-52078006D01*
X209549000Y-52078006D02*
X209406142Y-51792291D01*
X209406142Y-51792291D02*
X209406142Y-51506577D01*
X209406142Y-49220863D02*
X210977571Y-49220863D01*
X210977571Y-49220863D02*
X211263285Y-49363720D01*
X211263285Y-49363720D02*
X211406142Y-49649434D01*
X211406142Y-49649434D02*
X211406142Y-50220863D01*
X211406142Y-50220863D02*
X211263285Y-50506577D01*
X209549000Y-49220863D02*
X209406142Y-49506577D01*
X209406142Y-49506577D02*
X209406142Y-50220863D01*
X209406142Y-50220863D02*
X209549000Y-50506577D01*
X209549000Y-50506577D02*
X209834714Y-50649434D01*
X209834714Y-50649434D02*
X210120428Y-50649434D01*
X210120428Y-50649434D02*
X210406142Y-50506577D01*
X210406142Y-50506577D02*
X210549000Y-50220863D01*
X210549000Y-50220863D02*
X210549000Y-49506577D01*
X210549000Y-49506577D02*
X210691857Y-49220863D01*
X211406142Y-46506577D02*
X208977571Y-46506577D01*
X208977571Y-46506577D02*
X208691857Y-46649434D01*
X208691857Y-46649434D02*
X208549000Y-46792291D01*
X208549000Y-46792291D02*
X208406142Y-47078005D01*
X208406142Y-47078005D02*
X208406142Y-47506577D01*
X208406142Y-47506577D02*
X208549000Y-47792291D01*
X209549000Y-46506577D02*
X209406142Y-46792291D01*
X209406142Y-46792291D02*
X209406142Y-47363719D01*
X209406142Y-47363719D02*
X209549000Y-47649434D01*
X209549000Y-47649434D02*
X209691857Y-47792291D01*
X209691857Y-47792291D02*
X209977571Y-47935148D01*
X209977571Y-47935148D02*
X210834714Y-47935148D01*
X210834714Y-47935148D02*
X211120428Y-47792291D01*
X211120428Y-47792291D02*
X211263285Y-47649434D01*
X211263285Y-47649434D02*
X211406142Y-47363719D01*
X211406142Y-47363719D02*
X211406142Y-46792291D01*
X211406142Y-46792291D02*
X211263285Y-46506577D01*
X209549000Y-45220862D02*
X209406142Y-44935148D01*
X209406142Y-44935148D02*
X209406142Y-44363719D01*
X209406142Y-44363719D02*
X209549000Y-44078005D01*
X209549000Y-44078005D02*
X209834714Y-43935148D01*
X209834714Y-43935148D02*
X209977571Y-43935148D01*
X209977571Y-43935148D02*
X210263285Y-44078005D01*
X210263285Y-44078005D02*
X210406142Y-44363719D01*
X210406142Y-44363719D02*
X210406142Y-44792291D01*
X210406142Y-44792291D02*
X210549000Y-45078005D01*
X210549000Y-45078005D02*
X210834714Y-45220862D01*
X210834714Y-45220862D02*
X210977571Y-45220862D01*
X210977571Y-45220862D02*
X211263285Y-45078005D01*
X211263285Y-45078005D02*
X211406142Y-44792291D01*
X211406142Y-44792291D02*
X211406142Y-44363719D01*
X211406142Y-44363719D02*
X211263285Y-44078005D01*
D10*
G04 #@! TO.C,BT3*
X150000000Y-39500000D02*
X133500000Y-39500000D01*
X150000000Y-100000000D02*
X150000000Y-39500000D01*
X140500000Y-35500000D02*
X140500000Y-104500000D01*
X140500000Y-35500000D02*
X126500000Y-35500000D01*
X140500000Y-104500000D02*
X126500000Y-104500000D01*
X133500000Y-39500000D02*
X117000000Y-39500000D01*
X126500000Y-35000000D02*
X126500000Y-35000000D01*
X126500000Y-104500000D02*
X126500000Y-35500000D01*
X117000000Y-39500000D02*
X117000000Y-100000000D01*
X117000000Y-100000000D02*
X150000000Y-100000000D01*
G04 #@! TO.C,BT2*
X183000000Y-39500000D02*
X166500000Y-39500000D01*
X183000000Y-100000000D02*
X183000000Y-39500000D01*
X173500000Y-35500000D02*
X173500000Y-104500000D01*
X173500000Y-35500000D02*
X159500000Y-35500000D01*
X173500000Y-104500000D02*
X159500000Y-104500000D01*
X166500000Y-39500000D02*
X150000000Y-39500000D01*
X159500000Y-35000000D02*
X159500000Y-35000000D01*
X159500000Y-104500000D02*
X159500000Y-35500000D01*
X150000000Y-39500000D02*
X150000000Y-100000000D01*
X150000000Y-100000000D02*
X183000000Y-100000000D01*
G04 #@! TO.C,BT1*
X216000000Y-39500000D02*
X199500000Y-39500000D01*
X216000000Y-100000000D02*
X216000000Y-39500000D01*
X206500000Y-35500000D02*
X206500000Y-104500000D01*
X206500000Y-35500000D02*
X192500000Y-35500000D01*
X206500000Y-104500000D02*
X192500000Y-104500000D01*
X199500000Y-39500000D02*
X183000000Y-39500000D01*
X192500000Y-35000000D02*
X192500000Y-35000000D01*
X192500000Y-104500000D02*
X192500000Y-35500000D01*
X183000000Y-39500000D02*
X183000000Y-100000000D01*
X183000000Y-100000000D02*
X216000000Y-100000000D01*
G04 #@! TD*
M02*
